<svg width="20" height="16" viewBox="0 0 20 16" fill="none" xmlns="http://www.w3.org/2000/svg">
<path d="M0.57143 4.67777L9.70343 9.4272C9.79503 9.47483 9.89676 9.49969 10 9.49969C10.1032 9.49969 10.205 9.47483 10.2966 9.4272L19.4286 4.67862V12.9286C19.4286 13.6402 19.1564 14.3248 18.6677 14.842C18.179 15.3592 17.511 15.6698 16.8006 15.7101L16.6429 15.7143H3.35714C2.6456 15.7144 1.96101 15.4421 1.4438 14.9535C0.926602 14.4648 0.616001 13.7967 0.575716 13.0863L0.57143 12.9286V4.67777ZM3.35714 0.285767H16.6429C17.3544 0.28572 18.039 0.557956 18.5562 1.04663C19.0734 1.5353 19.384 2.20336 19.4243 2.91377L19.4286 3.07148V3.2292L10 8.13205L0.57143 3.2292V3.07148C0.571384 2.35993 0.843619 1.67534 1.33229 1.15814C1.82096 0.640938 2.48902 0.330337 3.19943 0.290052L3.35714 0.285767H16.6429H3.35714Z" fill="white"/>
</svg>
